<svg xmlns="http://www.w3.org/2000/svg" width="32" height="32" viewBox="0 0 32 32"><g fill="none"><path fill="#367af2" d="M2 10v12.5A4.5 4.5 0 0 0 6.5 27h19a4.5 4.5 0 0 0 4.5-4.5V10l-13.526 7.292a1 1 0 0 1-.948 0z"/><path fill="url(#fluentColorMail320)" d="M2 10v12.5A4.5 4.5 0 0 0 6.5 27h19a4.5 4.5 0 0 0 4.5-4.5V10l-13.526 7.292a1 1 0 0 1-.948 0z"/><path fill="url(#fluentColorMail321)" d="M2 10v12.5A4.5 4.5 0 0 0 6.5 27h19a4.5 4.5 0 0 0 4.5-4.5V10l-13.526 7.292a1 1 0 0 1-.948 0z"/><path fill="url(#fluentColorMail322)" fill-opacity="0.75" d="M2 10v12.5A4.5 4.5 0 0 0 6.5 27h19a4.5 4.5 0 0 0 4.5-4.5V10l-13.526 7.292a1 1 0 0 1-.948 0z"/><path fill="url(#fluentColorMail323)" fill-opacity="0.7" d="M2 10v12.5A4.5 4.5 0 0 0 6.5 27h19a4.5 4.5 0 0 0 4.5-4.5V10l-13.526 7.292a1 1 0 0 1-.948 0z"/><path fill="url(#fluentColorMail324)" d="M6.5 5A4.5 4.5 0 0 0 2 9.5v1.09l13.526 7.292a1 1 0 0 0 .948 0L30 10.59V9.5A4.5 4.5 0 0 0 25.5 5z"/><defs><linearGradient id="fluentColorMail320" x1="19.555" x2="26.862" y1="13.332" y2="27.873" gradientUnits="userSpaceOnUse"><stop offset=".199" stop-color="#0094f0" stop-opacity="0"/><stop offset=".431" stop-color="#0094f0"/></linearGradient><linearGradient id="fluentColorMail321" x1="12" x2="4.914" y1="11.79" y2="28.328" gradientUnits="userSpaceOnUse"><stop offset=".191" stop-color="#0094f0" stop-opacity="0"/><stop offset=".431" stop-color="#0094f0"/></linearGradient><linearGradient id="fluentColorMail322" x1="23.383" x2="24.532" y1="20.142" y2="28.575" gradientUnits="userSpaceOnUse"><stop stop-color="#2764e7" stop-opacity="0"/><stop offset="1" stop-color="#2764e7"/></linearGradient><linearGradient id="fluentColorMail323" x1="20.333" x2="22.43" y1="12.088" y2="29.25" gradientUnits="userSpaceOnUse"><stop offset=".533" stop-color="#ff6ce8" stop-opacity="0"/><stop offset="1" stop-color="#ff6ce8"/></linearGradient><linearGradient id="fluentColorMail324" x1="10.318" x2="18.903" y1=".976" y2="23.436" gradientUnits="userSpaceOnUse"><stop stop-color="#6ce0ff"/><stop offset=".462" stop-color="#29c3ff"/><stop offset="1" stop-color="#4894fe"/></linearGradient></defs></g></svg>